<svg width="32" height="32" viewBox="0 0 32 32" fill="none" xmlns="http://www.w3.org/2000/svg">
<g clip-path="url(#clip0_856_9008)">
<path d="M16 32C24.8366 32 32 24.8366 32 16C32 7.16344 24.8366 0 16 0C7.16344 0 0 7.16344 0 16C0 24.8366 7.16344 32 16 32Z" fill="black"/>
<path d="M14.9781 25.6212C18.5205 25.6212 21.3922 22.7495 21.3922 19.2071C21.3922 15.6647 18.5205 12.793 14.9781 12.793C11.4357 12.793 8.56396 15.6647 8.56396 19.2071C8.56396 22.7495 11.4357 25.6212 14.9781 25.6212Z" fill="white"/>
<path d="M15.013 21.3216C16.1808 21.3216 17.1275 20.3749 17.1275 19.2071C17.1275 18.0392 16.1808 17.0925 15.013 17.0925C13.8451 17.0925 12.8984 18.0392 12.8984 19.2071C12.8984 20.3749 13.8451 21.3216 15.013 21.3216Z" fill="black"/>
<path d="M23.0132 9.69165H7.22461V19.2071H23.0132V9.69165Z" fill="black"/>
<path d="M8.56396 13.4978C8.56396 13.1085 8.87952 12.793 9.26881 12.793H11.1367C12.1098 12.793 12.8988 13.5819 12.8988 14.5551V19.7709H8.56396V13.4978Z" fill="white"/>
<path d="M21.3922 18.0439H17.1279V19.2069H21.3922V18.0439Z" fill="white"/>
<path d="M17.1279 9.33926C17.1279 8.36608 17.9169 7.57715 18.89 7.57715H25.0574C25.4467 7.57715 25.7623 7.89271 25.7623 8.28199V11.1366C25.7623 11.5259 25.4467 11.8415 25.0574 11.8415H17.8328C17.4435 11.8415 17.1279 11.5259 17.1279 11.1366V9.33926Z" fill="white"/>
<path d="M17.1279 13.4978C17.1279 13.1085 17.4435 12.793 17.8328 12.793H25.0574C25.4467 12.793 25.7623 13.1085 25.7623 13.4978V16.3524C25.7623 16.7417 25.4467 17.0573 25.0574 17.0573H17.8328C17.4435 17.0573 17.1279 16.7417 17.1279 16.3524V13.4978Z" fill="white"/>
</g>
<defs>
<clipPath id="clip0_856_9008">
<rect width="32" height="32" fill="white"/>
</clipPath>
</defs>
</svg>
